<svg width="38" height="38" viewBox="0 0 38 38" fill="none" xmlns="http://www.w3.org/2000/svg">
<g filter="url(#filter0_d)">
<path d="M33.3126 12.6766C33.8168 15.7824 33.297 18.968 31.8318 21.7525C30.3665 24.537 28.0352 26.7693 25.1898 28.1125C22.3444 29.4556 19.1393 29.8368 16.0582 29.1984C12.9771 28.5601 10.1873 26.9368 8.10986 24.5737C6.03237 22.2105 4.77996 19.2357 4.54165 16.0982C4.30334 12.9608 5.09205 9.83091 6.78876 7.18107C8.48547 4.53123 10.9981 2.50521 13.9474 1.40879C16.8967 0.31237 20.1226 0.205059 23.1382 1.10305" stroke="#FF7E82" stroke-linecap="round" stroke-linejoin="round"/>
</g>
<path d="M10 15H19.35L27 5" stroke="#FF7E82" stroke-width="2" stroke-linecap="round" stroke-linejoin="round"/>
<defs>
<filter id="filter0_d" x="0" y="-1.90735e-06" width="38" height="38" filterUnits="userSpaceOnUse" color-interpolation-filters="sRGB">
<feFlood flood-opacity="0" result="BackgroundImageFix"/>
<feColorMatrix in="SourceAlpha" type="matrix" values="0 0 0 0 0 0 0 0 0 0 0 0 0 0 0 0 0 0 127 0"/>
<feOffset dy="4"/>
<feGaussianBlur stdDeviation="2"/>
<feColorMatrix type="matrix" values="0 0 0 0 0 0 0 0 0 0 0 0 0 0 0 0 0 0 0.25 0"/>
<feBlend mode="normal" in2="BackgroundImageFix" result="effect1_dropShadow"/>
<feBlend mode="normal" in="SourceGraphic" in2="effect1_dropShadow" result="shape"/>
</filter>
</defs>
</svg>
