<svg width="261" height="62" viewBox="0 0 261 62" fill="none" xmlns="http://www.w3.org/2000/svg">
<path d="M87.8851 31.4313H80.7119V27.009H100.281V31.4313H93.1083V43.6187H87.8851V31.4313Z" fill="white"/>
<path d="M120.339 27.0089V43.549H115.29V33.9384L106.584 43.5838H102.127V27.0438H107.176V36.6457L115.882 27.0002L120.339 27.0089Z" fill="white"/>
<path d="M129.035 43.5753H123.986V27.0352H129.035V33.1289H137.149V27.0352H142.198V43.5753H137.149V37.4119H129.035V43.5753Z" fill="white"/>
<path d="M145.845 43.5753V27.0352H150.894V31.4662H156.118C157.365 31.4019 158.614 31.5551 159.809 31.9189C160.948 32.3106 161.931 33.0608 162.609 34.0572C163.286 35.0537 163.623 36.2428 163.569 37.4467C163.613 38.7585 163.205 40.0453 162.412 41.0915C161.619 42.1376 160.491 42.8793 159.217 43.1922C158.183 43.4672 157.117 43.5961 156.048 43.5753H145.845ZM150.894 39.5708H155.247C155.918 39.6313 156.595 39.5482 157.232 39.3271C157.617 39.1685 157.946 38.8978 158.176 38.5501C158.405 38.2024 158.525 37.7938 158.52 37.3771C158.528 36.9722 158.402 36.576 158.163 36.249C157.924 35.9221 157.585 35.6823 157.197 35.5664C156.563 35.3882 155.904 35.3175 155.247 35.3575H150.894V39.5708Z" fill="white"/>
<path d="M170.934 43.5753H165.885V27.0352H170.934V33.2682H172.327L178.42 27.0352H184.758L176.679 34.9744L185.071 43.6101H178.368L172.344 37.3423H170.951L170.934 43.5753Z" fill="white"/>
<path d="M206.408 35.2964C206.408 40.241 202.334 44.0714 195.579 44.0714C188.823 44.0714 184.723 40.2672 184.723 35.2964C184.723 30.3257 188.815 26.5911 195.579 26.5911C202.343 26.5911 206.408 30.3866 206.408 35.2964ZM201.115 35.2964C201.115 32.5804 198.921 30.5956 195.579 30.5956C192.236 30.5956 190.042 32.5804 190.042 35.2964C190.042 38.0125 192.201 40.0321 195.579 40.0321C198.956 40.0321 201.115 38.0386 201.115 35.2964Z" fill="white"/>
<path d="M233.212 35.2964C233.212 40.0321 229.416 42.5044 223.044 42.6437V44.3151H217.995V42.635C211.657 42.4957 207.862 40.0234 207.862 35.2877C207.862 30.552 211.657 27.8708 217.995 27.7315V26.0688H223.044V27.7402C229.425 27.8795 233.212 30.5608 233.212 35.2964ZM217.995 31.3268C214.513 31.4661 212.981 33.0679 212.981 35.2964C212.981 37.525 214.513 38.9527 217.995 39.092V31.3268ZM228.067 35.2964C228.067 33.0679 226.57 31.4661 223.053 31.3268V39.092C226.57 38.944 228.067 37.5163 228.067 35.2964Z" fill="white"/>
<path d="M260.033 35.2964C260.033 40.0321 256.237 42.5044 249.865 42.6437V44.3151H244.816V42.635C238.478 42.4957 234.683 40.0234 234.683 35.2877C234.683 30.552 238.478 27.8708 244.816 27.7315V26.0688H249.865V27.7402C256.237 27.8795 260.033 30.5608 260.033 35.2964ZM244.816 31.3268C241.334 31.4661 239.802 33.0679 239.802 35.2964C239.802 37.525 241.334 38.9527 244.816 39.092V31.3268ZM254.879 35.2964C254.879 33.0679 253.382 31.4661 249.865 31.3268V39.092C253.382 38.944 254.879 37.5163 254.879 35.2964Z" fill="white"/>
<path fill-rule="evenodd" clip-rule="evenodd" d="M19.6967 44.8721C20.5673 44.1496 21.3594 43.7927 21.3246 42.0516C19.9579 42.748 16.1014 42.7132 14.4736 40.4847C14.0122 39.8492 14.4736 39.5358 14.9436 40.032C16.0492 41.2856 18.1037 40.7197 18.8436 40.3541C18.7061 39.8878 18.4548 39.463 18.1124 39.1179C18.3909 38.8394 19.1831 38.4302 19.3485 37.7251C18.6893 37.5119 18.0094 37.369 17.3202 37.2985C17.5336 37.1095 17.6851 36.8606 17.755 36.5842C17.8249 36.3078 17.8098 36.0167 17.7119 35.749C16.0318 36.2626 13.9686 35.5662 13.4899 34.9394C13.0111 34.3126 13.4899 33.7555 13.8903 34.1646C14.7608 35.0351 18.8436 36.045 20.3757 34.5215C19.8331 34.3733 19.3647 34.029 19.0612 33.5552C20.4802 33.416 21.6119 32.5803 21.6728 31.5356C20.7291 31.5995 19.7831 31.4508 18.9046 31.1004C19.2205 31.0334 19.5115 30.8798 19.7452 30.6569C19.9789 30.434 20.146 30.1505 20.2278 29.8381C17.6162 29.6814 17.4334 27.7575 17.4159 27.4354C19.1048 28.4104 22.0733 27.9751 21.3072 25.5812C19.9057 25.5028 18.4867 23.2308 22.3519 21.1502C25.834 19.2524 29.8558 17.198 29.4989 13.829C29.2726 11.6701 25.7121 10.1989 25.2681 9.10206C23.7882 9.80719 23.5271 10.6255 24.1539 12.0009C24.1539 12.0009 20.8458 12.3317 20.5847 10.2599C20.5842 9.79642 20.6871 9.3387 20.8859 8.92005C21.0847 8.5014 21.3743 8.13235 21.7338 7.83979C21.3594 7.83979 18.8697 7.16948 18.1211 9.19782C16.7282 8.24894 15.5095 8.28376 14.5954 9.28487C16.0927 10.1554 17.0242 13.2284 19.5052 14.1337C17.7642 15.0913 14.8827 14.6909 13.22 11.7485C11.6443 14.125 10.739 16.4754 14.0905 18.9826C7.93587 21.7857 7.99681 27.1307 2.63434 29.6814C3.21759 31.1613 4.35799 31.1613 5.82048 30.9437C3.50487 33.947 5.48097 37.0983 1.81604 38.378C2.16425 39.6054 2.85197 40.5804 4.20129 40.2235C3.81826 40.8242 3.56581 40.8068 2.96514 41.4684C4.96736 42.7306 7.31779 41.8166 7.87493 37.7686C7.97069 37.0461 8.9631 37.4987 8.62359 38.2039C6.3428 42.9222 12.1057 46.4739 10.0687 49.9299C11.8707 49.8516 13.2374 49.7123 13.9861 49.1116C14.3599 49.764 14.5354 50.5112 14.491 51.2618C14.8639 51.2275 15.2125 51.0615 15.4741 50.7935C15.7357 50.5255 15.8933 50.173 15.9186 49.7993C16.5715 51.6971 18.8958 53.7341 22.6217 53.7341C20.6456 50.9136 22.4824 48.0583 19.6967 44.8373V44.8721ZM16.0144 48.3194L15.2222 49.6688C14.9086 48.817 14.5302 47.9905 14.0905 47.1965C13.455 48.5197 12.4365 48.5458 11.4789 48.5458C11.6792 45.3858 7.74435 42.2083 9.48541 38.6043C9.57466 38.4329 9.62925 38.2455 9.64605 38.0529C9.66285 37.8604 9.64153 37.6664 9.58332 37.482C9.52512 37.2977 9.43115 37.1267 9.30681 36.9787C9.18246 36.8307 9.03017 36.7086 8.85863 36.6195C6.16869 35.2963 7.39614 40.8851 4.74102 41.0505C5.10772 40.3992 5.3692 39.6941 5.51579 38.9612C4.94995 39.1092 3.60063 39.9711 2.99126 38.8655C3.61397 38.5255 4.14414 38.0384 4.53559 37.4467C4.92704 36.855 5.16791 36.1765 5.23722 35.4704C5.37089 34.4337 5.62807 33.4166 6.00329 32.441C6.56726 31.4487 7.22927 30.5155 7.9794 29.6553C7.70953 29.6553 4.72361 30.3256 4.0446 30.0122C9.22425 26.8348 8.05774 22.7955 15.9447 19.1915C13.8381 17.6594 11.7575 16.4319 13.2809 13.533C15.4398 16.1446 19.5487 15.2741 21.7686 14.0292C19.5749 13.594 16.7543 11.6527 16.084 9.51121C16.911 9.38063 17.9818 10.2773 18.5999 10.6951C18.8958 9.90294 19.0177 8.95407 19.9753 8.77996C18.6956 11.5221 21.2289 12.9585 23.6402 12.9672C24.0146 12.9672 25.5815 12.8105 25.5815 12.8105C25.3291 12.2969 24.3193 10.8953 25.0505 10.3295C25.6425 10.8866 26.3476 11.3306 26.9918 11.8181C31.6926 15.4569 24.7545 18.8259 21.9166 20.358C17.4682 22.7607 18.6608 25.6247 20.515 26.356C20.515 26.6781 20.3061 26.8173 20.0014 26.9218C18.7043 27.3571 17.4769 26.4256 16.441 25.8336C16.5019 27.6269 16.38 29.3158 18.3648 30.343L16.9981 30.8392C18.1733 31.7097 18.5302 32.2059 19.9492 32.3887C19.2488 32.6432 18.5093 32.7728 17.7642 32.7718C17.9029 33.3471 18.1384 33.8946 18.4606 34.391C15.5617 34.7392 14.4039 33.0852 13.5073 33.1461C11.5921 33.2854 11.714 36.8894 16.4235 36.8894L15.936 37.6903C16.4759 37.9963 17.0651 38.2055 17.6771 38.3083C17.3637 38.5608 17.0677 38.9003 16.8066 39.1789L17.5552 39.8231C15.6314 40.1713 15.0916 38.082 13.8468 39.1092C11.949 40.6152 16.1363 43.7927 20.1494 43.3226C19.6268 43.8337 19.0618 44.2996 18.4606 44.7154C21.7338 47.8058 20.1146 50.7221 21.4639 52.8549C20.1943 52.7873 18.98 52.3134 18.0004 51.503C17.0207 50.6926 16.3275 49.5887 16.0231 48.3543" fill="#FF7E82"/>
<path fill-rule="evenodd" clip-rule="evenodd" d="M10.8607 37.0376C11.5397 37.7514 12.3668 37.8211 13.925 37.7253C12.1839 37.5164 11.2438 37.0985 10.6431 35.9842C10.5531 35.3581 10.4978 34.7274 10.4777 34.0952C10.5259 31.8738 11.1402 29.7015 12.2623 27.7838C12.3045 28.813 12.7053 29.7949 13.3953 30.5596C14.0853 31.3243 15.021 31.8236 16.0404 31.9711C13.69 30.9439 12.3145 28.6282 13.0632 26.391C13.5507 25.6075 14.1078 24.8066 14.7172 23.9796C15.0306 23.5879 15.3266 23.2048 15.5877 22.8479C15.2743 23.9883 16.6498 25.1635 17.5725 25.3638C17.0763 24.8763 15.9969 23.2832 18.4431 20.6281C17.7397 20.9637 17.0719 21.369 16.4495 21.8381C20.9589 16.9631 24.6673 16.8326 26.3736 14.3777C23.9361 16.0665 17.4071 17.0154 14.4734 16.1448C16.0926 17.2243 20.0013 17.1285 20.9502 16.9283C17.764 20.0187 10.8172 23.2223 9.63328 26.0602C10.7241 24.7624 12.1948 23.8398 13.8379 23.4225C12.7005 24.9843 11.7262 26.6587 10.9304 28.4193C9.08485 32.4325 6.57772 32.4847 6.44714 35.8014C7.31767 33.2334 8.9978 32.5805 10.1904 30.9003C9.96654 32.1025 9.87604 33.3258 9.92056 34.5479C9.9508 35.9181 10.228 37.2717 10.7389 38.5436C10.617 40.1802 10.7389 42.9746 12.6366 44.8201C11.5984 43.2835 11.0937 41.4484 11.2002 39.5969C12.6714 42.4349 16.8587 46.3522 18.887 48.9813C16.8587 45.5949 11.9228 41.6427 10.8346 37.0724" fill="#FF7E82"/>
<path fill-rule="evenodd" clip-rule="evenodd" d="M57.2341 23.4225C58.897 23.8419 60.3843 24.7776 61.4823 26.095C60.281 23.2484 53.3254 20.0535 50.1654 16.9631C51.123 17.1634 55.023 17.2678 56.6421 16.1797C53.691 17.0154 47.1621 16.0665 44.6898 14.4038C46.4308 16.8587 50.1045 17.0154 54.6138 21.8642C53.9773 21.3789 53.2916 20.9617 52.5681 20.6194C55.0491 23.2745 53.9783 24.8676 53.4386 25.3551C54.3614 25.1548 55.7455 23.9796 55.4321 22.8392C55.7281 23.1961 56.0328 23.5705 56.3026 23.9709C56.9207 24.7892 57.4691 25.5988 57.9566 26.3823C58.7053 28.6195 57.3212 30.9352 54.9794 31.9624C55.9979 31.8147 56.9325 31.3151 57.6211 30.5502C58.3096 29.7853 58.7086 28.8035 58.7488 27.7751C59.874 29.692 60.4913 31.8644 60.5421 34.0865C60.5197 34.7189 60.4616 35.3496 60.368 35.9755C59.7673 37.1159 58.8011 37.5338 57.0861 37.7166C58.6531 37.8123 59.4714 37.7166 60.1504 37.0289C59.0883 41.5905 54.1176 45.5514 52.0893 48.9377C54.1176 46.3261 58.3049 42.3913 59.776 39.5534C59.8813 41.4047 59.3767 43.2394 58.3397 44.7766C60.22 42.9311 60.3593 40.1367 60.2374 38.4914C60.7456 37.2217 61.0228 35.8715 61.0557 34.5043C61.121 33.2961 61.0509 32.0843 60.8468 30.8916C62.0307 32.5805 63.7457 33.2247 64.5901 35.7927C64.4247 32.4847 61.9785 32.4325 60.0981 28.4106C59.3035 26.6494 58.3292 24.9749 57.1906 23.4138" fill="#FF7E82"/>
<path fill-rule="evenodd" clip-rule="evenodd" d="M65.2775 30.9438C66.7313 31.1701 67.8891 31.1701 68.4202 29.7163C63.0664 27.1657 63.1186 21.8206 56.964 19.0175C60.3416 16.5104 59.4363 14.1599 57.8345 11.7834C56.1718 14.7258 53.3077 15.1262 51.5493 14.1686C54.0216 13.2981 54.9618 10.2077 56.4591 9.31977C55.5537 8.30995 54.3611 8.30995 52.9595 9.18048C52.2022 7.15214 49.7212 7.82245 49.3468 7.82245C49.7067 8.11461 49.9967 8.48357 50.1955 8.90231C50.3944 9.32106 50.497 9.77898 50.4959 10.2426C50.2348 12.2796 46.9355 11.9836 46.9355 11.9836C47.6058 10.6082 47.3098 9.78985 45.8212 9.08472C45.3685 10.1816 41.8167 11.6528 41.5904 13.8117C41.2335 17.1894 45.2292 19.2351 48.7375 21.1329C52.6026 23.2222 51.1837 25.4855 49.7821 25.5639C49.0073 27.9666 51.9758 28.3931 53.6734 27.4181C53.6734 27.7402 53.447 29.6641 50.8616 29.8208C50.9399 30.1277 51.1004 30.4074 51.3259 30.6298C51.5514 30.8523 51.8333 31.009 52.1412 31.0831C51.2626 31.4332 50.3166 31.5819 49.373 31.5183C49.4687 32.563 50.6004 33.3987 51.9845 33.538C51.6852 34.0154 51.2202 34.3656 50.6787 34.5217C52.2109 36.0451 56.3285 35.044 57.1642 34.1647C57.5472 33.7643 58.0347 34.3301 57.5559 34.9395C57.0771 35.5489 55.014 36.2627 53.3339 35.7491C53.2371 36.017 53.2228 36.3077 53.2926 36.5838C53.3624 36.86 53.5132 37.1089 53.7256 37.2986C53.0258 37.3548 52.3341 37.4861 51.6624 37.6904C51.8191 38.3955 52.62 38.8047 52.8986 39.0832C52.5568 39.4288 52.3056 39.8534 52.1674 40.3194C52.916 40.685 54.9705 41.2509 56.0673 39.9973C56.5113 39.5011 56.9988 39.8145 56.5461 40.45C54.9269 42.6785 51.0618 42.7133 49.695 42.0169C49.695 43.758 50.4089 44.1149 51.3229 44.8374C48.5285 48.0584 50.3741 50.9312 48.398 53.7343C52.1238 53.7343 54.4917 51.7059 55.101 49.7995C55.1264 50.1731 55.284 50.5256 55.5456 50.7936C55.8072 51.0616 56.1558 51.2276 56.5287 51.262C56.4883 50.5117 56.6635 49.7656 57.0336 49.1117C57.791 49.7211 59.1664 49.8604 60.9597 49.93C58.9227 46.4479 64.6943 42.9223 62.4048 38.204C62.0653 37.4989 63.0577 37.0462 63.1535 37.7687C63.6932 41.8167 66.061 42.7308 68.0719 41.4685C67.4713 40.8069 67.2014 40.8243 66.8358 40.2236C68.1851 40.5805 68.8728 39.6056 69.221 38.3781C65.5648 37.0897 67.5322 33.9471 65.2166 30.9438H65.2775ZM65.5213 38.9788C65.6647 39.7126 65.9264 40.4182 66.2961 41.068C63.6322 40.8939 64.8684 35.2877 62.2046 36.637C62.033 36.7262 61.8807 36.8482 61.7564 36.9962C61.6321 37.1442 61.5381 37.3152 61.4799 37.4996C61.4217 37.6839 61.4004 37.8779 61.4172 38.0705C61.434 38.263 61.4885 38.4504 61.5778 38.6219C63.3188 42.2258 59.3492 45.4033 59.5756 48.5633C58.5919 48.5633 57.5733 48.5633 56.964 47.214C56.5255 48.0087 56.1472 48.8351 55.8323 49.6863L55.0749 48.3544C54.7715 49.5814 54.0845 50.6796 53.1137 51.489C52.143 52.2985 50.9392 52.7771 49.6776 52.855C51.0183 50.7222 49.4078 47.8147 52.681 44.7156C52.0793 44.3003 51.5143 43.8343 50.9921 43.3227C55.014 43.7928 59.2012 40.6154 57.2948 39.1094C56.0499 38.1257 55.5015 40.1714 53.5863 39.8232L54.335 39.179C54.0738 38.9178 53.7691 38.5783 53.4644 38.3085C54.0765 38.2057 54.6657 37.9966 55.2055 37.6904L54.718 36.8895C59.4189 36.8895 59.5407 33.2855 57.6343 33.1462C56.7638 33.0766 55.5798 34.7306 52.681 34.3911C52.9994 33.8927 53.2347 33.3458 53.3774 32.7719C52.6323 32.7728 51.8928 32.6431 51.1924 32.3889C52.6113 32.206 52.9334 31.736 54.1435 30.8393L52.7767 30.3344C54.7615 29.342 54.631 27.6183 54.6919 25.8251C53.656 26.4257 52.4285 27.3485 51.1401 26.9132C50.8267 26.8088 50.6265 26.6695 50.6265 26.3474C52.4894 25.6161 53.6734 22.7521 49.225 20.3494C46.3522 18.7563 39.4054 15.4135 44.1062 11.7921C44.7504 11.2959 45.4469 10.8519 46.0388 10.3035C46.7788 10.8693 45.769 12.2709 45.5165 12.7845C45.5165 12.7845 47.0835 12.9412 47.4491 12.9412C49.8692 12.9412 52.4111 11.4961 51.1227 8.75392C52.089 8.95414 52.2022 9.87691 52.4895 10.6691C53.1075 10.2513 54.1783 9.35459 55.0053 9.48517C54.335 11.6354 51.5232 13.568 49.312 14.0033C51.5319 15.2133 55.6408 16.1099 57.7997 13.507C59.3144 16.4407 57.199 17.6682 55.1272 19.209C63.0229 22.8043 61.8564 26.8523 67.0273 30.0297C66.357 30.3431 63.3624 29.7163 63.0925 29.6728C63.8482 30.5306 64.5133 31.4641 65.0773 32.4585C65.4518 33.4344 65.709 34.4513 65.8434 35.4879C65.917 36.1928 66.1597 36.8694 66.5507 37.4605C66.9417 38.0515 67.4695 38.5395 68.0894 38.883C67.48 39.9886 66.1307 39.1268 65.5648 38.9788" fill="#FF7E82"/>
<path fill-rule="evenodd" clip-rule="evenodd" d="M28.0017 47.8059L29.1247 46.8483L28.9505 46.5088C28.8287 46.265 28.8896 46.2476 29.0202 46.1519L29.6122 45.7079C29.6762 45.6601 29.7514 45.6294 29.8306 45.6187C29.9098 45.6081 29.9904 45.6178 30.0648 45.6469L31.8059 46.0648H29.9778C29.8174 46.058 29.6593 46.1048 29.5285 46.1978C29.3976 46.2908 29.3015 46.4247 29.2552 46.5784L29.1247 46.8396L28.6372 47.8494C28.524 48.0595 28.4807 48.3002 28.5136 48.5365C28.5465 48.7729 28.6538 48.9926 28.82 49.1639L29.1595 49.573L28.4718 50.9659H29.055L29.5077 49.9996C29.9077 49.631 30.2073 49.1667 30.3782 48.6503C30.178 48.4849 30.03 48.363 30.1432 48.1367L30.3608 47.6753C30.4304 47.5186 30.4566 47.4577 30.6655 47.5012L32.5371 47.9016C32.6768 47.9736 32.8379 47.9921 32.9902 47.9536C33.1425 47.9152 33.2755 47.8224 33.3641 47.6927C33.6166 47.301 33.6514 47.3445 34.2347 47.4054L35.1923 47.5099C36.2687 47.6511 37.3619 47.4404 38.3088 46.9092C38.4829 47.3184 38.8398 47.6231 39.0052 47.9364C39.0661 48.0496 39.0052 48.215 38.8833 48.4239L37.8735 50.9659H39.5275L40.459 48.6242C40.5283 48.4416 40.6351 48.2756 40.7724 48.1367L40.2413 50.9659H41.8431L42.2697 48.1628C42.3654 47.5447 42.2697 47.3358 42.0085 47.0833C41.3382 46.5175 41.3556 45.3423 41.138 44.611C41.2592 44.5416 41.4 44.5141 41.5384 44.5327C41.8866 44.5327 42.1478 45.4554 42.5656 46.03C43.3839 47.1878 44.5069 48.4588 45.7953 46.6655C45.6728 46.465 45.533 46.2757 45.3775 46.0996L45.0205 45.6818C44.8116 45.4467 43.8192 44.315 43.4014 43.9407C43.0184 43.5594 42.5184 43.3178 41.9817 43.2546C41.4449 43.1915 40.9026 43.3105 40.4416 43.5925C39.1358 42.9048 37.7603 43.5925 37.4382 43.5925L35.1923 43.4532C35.118 43.4504 35.0456 43.4291 34.9817 43.3911C34.9178 43.353 34.8645 43.2996 34.8266 43.2356L35.2445 43.0963C34.8527 41.4684 33.869 40.1104 32.1541 39.8753C32.1541 39.8753 32.0496 39.3617 31.7885 39.266L31.2749 39.8666C31.1249 39.8875 30.9785 39.9285 30.8396 39.9885L28.6372 39.1528L30.2825 40.8155C30.2825 40.8155 29.4119 42.0255 29.1856 42.2693C29.1448 42.3098 29.1124 42.3579 29.0903 42.4109C29.0682 42.464 29.0568 42.5209 29.0568 42.5783C29.0568 42.6358 29.0682 42.6927 29.0903 42.7457C29.1124 42.7988 29.1448 42.8469 29.1856 42.8874L29.5077 43.3052C29.6731 43.5229 29.8559 43.5141 30.1171 43.3749L30.474 43.1921C30.6307 43.0615 31.1617 43.3226 31.3445 43.1137C31.2169 43.5335 31.1323 43.9652 31.0921 44.4021L29.6122 44.228C29.4974 44.1993 29.3774 44.1986 29.2623 44.2258C29.1472 44.2531 29.0403 44.3076 28.9505 44.3847L27.7666 45.351C27.5611 45.5112 27.4193 45.7393 27.3667 45.9945C27.314 46.2497 27.354 46.5154 27.4793 46.7438L28.0017 47.8059ZM40.1891 48.0844L39.188 50.548H38.5699L39.571 48.1628C39.6755 47.8581 39.4753 47.7101 39.2315 47.3706C39.5787 47.5753 39.9428 47.75 40.3197 47.8929C40.2749 47.954 40.2342 48.018 40.1978 48.0844H40.1891ZM30.5523 42.7481L30.265 42.8961C30.0648 43.0092 29.9691 43.0615 29.795 42.8438L29.6731 42.6871C29.6352 42.6249 29.619 42.5519 29.6269 42.4795C29.6347 42.4071 29.6663 42.3393 29.7166 42.2867L30.9441 40.859L29.8124 39.9276L31.2487 40.4586L31.7798 39.797C31.9365 39.9276 31.8842 40.3106 31.8842 40.3106C32.5597 40.4477 33.165 40.819 33.5935 41.3589C34.0219 41.8989 34.2459 42.5727 34.226 43.2617C34.4289 43.564 34.7408 43.7761 35.0965 43.8537L37.5949 44.0016C38.0128 44.0016 39.04 43.2095 40.3719 43.9581C40.6931 43.7483 41.055 43.6088 41.434 43.549C41.9734 43.5634 42.5007 43.7128 42.9675 43.9835C43.4344 44.2542 43.8259 44.6375 44.1065 45.0985C44.5853 45.7427 45.2295 46.6132 45.2295 46.6132C44.9509 46.944 44.681 47.0485 44.4547 46.9702C44.2996 46.8786 44.1677 46.7524 44.0696 46.6013C43.9714 46.4503 43.9095 46.2786 43.8889 46.0996C43.7061 45.6483 43.4055 45.2545 43.0183 44.9592C43.2054 45.3755 43.3371 45.8145 43.4101 46.265C42.4351 45.2987 42.2523 44.1235 41.5645 43.9581C41.3761 43.9295 41.1835 43.9553 41.0093 44.0324C40.835 44.1095 40.6864 44.2347 40.5808 44.3934C40.929 45.1943 40.9029 46.1344 41.2598 46.7351C41.5297 47.1965 41.5819 47.24 41.7038 47.3358C41.9911 47.5447 41.8257 47.9103 41.7822 48.2063L41.4078 50.5219H40.8246L41.2337 48.2498C41.3556 47.5621 39.423 47.5621 38.4219 46.2389C37.5514 47.2313 35.201 46.9789 34.1737 46.8309C33.9833 46.762 33.7747 46.7617 33.584 46.83C33.3934 46.8983 33.2325 47.031 33.1291 47.2052C32.9985 47.4315 32.7722 47.3619 32.6329 47.3358L30.7613 46.9353C30.7024 46.9076 30.6382 46.8932 30.5732 46.8931C30.5082 46.8929 30.444 46.907 30.385 46.9344C30.3261 46.9618 30.2739 47.0018 30.2321 47.0516C30.1903 47.1014 30.1599 47.1598 30.1432 47.2226L29.7688 47.9974C29.7232 48.0698 29.705 48.1563 29.7178 48.241C29.7306 48.3257 29.7734 48.403 29.8385 48.4588L30.0126 48.6503C29.9231 48.9024 29.7702 49.1273 29.5686 49.3032L29.1595 48.8418C29.0686 48.7168 29.0154 48.5684 29.0061 48.4142C28.9969 48.2599 29.032 48.1062 29.1072 47.9713L29.7166 46.709C29.7544 46.6205 29.8176 46.5451 29.8981 46.4925C29.9787 46.4398 30.073 46.4122 30.1693 46.413H32.4849L31.7798 45.2552C31.2487 44.3847 32.128 42.8438 31.9974 42.1126C31.9278 43.0876 30.7438 42.6436 30.561 42.7742L30.5523 42.7481ZM28.0365 45.6557L29.1334 44.7851C29.2029 44.7104 29.2882 44.6521 29.3831 44.6145C29.4779 44.5769 29.58 44.5608 29.6818 44.5675L31.2313 44.7677C31.3018 45.0276 31.4135 45.2745 31.5621 45.499L29.9168 45.1507C29.8251 45.1285 29.7292 45.1297 29.638 45.154C29.5467 45.1783 29.463 45.2251 29.3945 45.29L28.611 45.882C28.5395 45.943 28.4929 46.0281 28.48 46.1212C28.4672 46.2143 28.489 46.3089 28.5414 46.3869L28.6633 46.6568L28.1148 47.0659L27.9059 46.6742C27.697 46.2563 27.6796 45.8733 28.0278 45.6034" fill="#FF7E82"/>
<path fill-rule="evenodd" clip-rule="evenodd" d="M32.8066 15.9185C33.3362 16.2535 33.8923 16.5447 34.4694 16.789V16.0839L32.1276 15.2134C32.1276 15.2134 32.1276 15.5007 32.8066 15.962" fill="#FF7E82"/>
<path fill-rule="evenodd" clip-rule="evenodd" d="M34.4695 15.0653V14.4037L31.8579 13.4548C32.1615 13.7538 32.4939 14.0221 32.8503 14.2557C33.3801 14.5903 33.9362 14.8814 34.513 15.1262" fill="#FF7E82"/>
<path fill-rule="evenodd" clip-rule="evenodd" d="M34.4695 13.4635V12.7584L31.5619 11.6877C31.5619 11.6877 32.1277 12.149 32.8067 12.6104C33.3359 12.9461 33.8921 13.2373 34.4695 13.4809" fill="#FF7E82"/>
<path fill-rule="evenodd" clip-rule="evenodd" d="M42.6437 23.1091H45.6122C45.5018 22.8225 45.2987 22.5812 45.0352 22.4234C44.7718 22.2656 44.4631 22.2006 44.1584 22.2386C43.8487 22.2282 43.5423 22.3041 43.2732 22.4579C43.0042 22.6116 42.7832 22.8371 42.6349 23.1091" fill="#FF7E82"/>
<path fill-rule="evenodd" clip-rule="evenodd" d="M39.5276 11.6876L36.62 12.7584V13.4635C37.1974 13.2199 37.7535 12.9287 38.2827 12.593C38.9617 12.1316 39.5189 11.6702 39.5189 11.6702" fill="#FF7E82"/>
<path fill-rule="evenodd" clip-rule="evenodd" d="M38.9617 15.1697L36.62 16.0403V16.7454C37.197 16.5009 37.753 16.2097 38.2827 15.8749C38.9617 15.4135 38.9617 15.1262 38.9617 15.1262" fill="#FF7E82"/>
<path fill-rule="evenodd" clip-rule="evenodd" d="M39.2836 13.4112L36.672 14.3601V15.0652C37.2492 14.8211 37.8053 14.53 38.3347 14.1947C38.6906 13.9604 39.023 13.6922 39.3271 13.3938" fill="#FF7E82"/>
<path fill-rule="evenodd" clip-rule="evenodd" d="M26.896 22.2386C26.5913 22.2006 26.2826 22.2656 26.0192 22.4234C25.7557 22.5812 25.5526 22.8225 25.4423 23.1091H28.4195C28.2704 22.8377 28.0493 22.6128 27.7804 22.4592C27.5116 22.3056 27.2055 22.2292 26.896 22.2386Z" fill="#FF7E82"/>
<path fill-rule="evenodd" clip-rule="evenodd" d="M41.4512 9.78128C41.4512 8.10986 38.6394 6.61255 35.5403 6.61255C32.4412 6.61255 29.6294 8.10986 29.6294 9.78128L29.6903 10.1904L30.9265 17.294L25.0678 20.7064C24.6639 20.9797 24.3219 21.3348 24.064 21.7487C23.806 22.1626 23.6379 22.6261 23.5705 23.1091H24.6413C24.7172 22.5161 25.0139 21.9735 25.4721 21.5895C25.9303 21.2055 26.5164 21.0083 27.1136 21.0372C28.4629 21.1069 29.2638 21.9078 30.0647 23.1091L30.2649 23.4225L30.5609 23.8839H21.9426C22.6652 25.1307 23.0884 26.5284 23.1788 27.9667V45.8735C23.1788 50.4786 26.7218 52.681 30.5522 52.681C33.512 52.681 33.9124 52.5505 35.549 54.1783C37.1769 52.5417 37.5774 52.7071 40.5459 52.7071C44.3762 52.7071 47.9193 50.5134 47.9193 45.8996V27.958C48.0093 26.5196 48.4325 25.1219 49.1554 23.8752H40.5372L40.8331 23.4138L41.0421 23.1004C41.8342 21.9252 42.6351 21.0982 43.9932 21.0285C44.5887 21.0043 45.1716 21.2048 45.6263 21.5901C46.081 21.9755 46.3743 22.5176 46.4481 23.1091H47.5101C47.4457 22.6305 47.2824 22.1705 47.0306 21.7583C46.7788 21.3462 46.4441 20.9909 46.0476 20.7152L40.1889 17.3027L41.4251 10.1991L41.4512 9.78128ZM30.8307 10.5996L35.1834 12.0882V18.9306L31.9624 17.233L30.8307 10.5996ZM31.9102 25.1113C32.5549 25.9457 33.4848 26.513 34.5218 26.7044C34.63 27.1891 34.8965 27.624 35.2792 27.9406C35.2108 28.2242 35.1995 28.5185 35.2459 28.8065C35.2922 29.0945 35.3953 29.3704 35.5492 29.6183C35.7031 29.8661 35.9047 30.0809 36.1423 30.2502C36.3798 30.4195 36.6487 30.5399 36.9332 30.6044C36.9935 30.9073 37.1334 31.1886 37.3384 31.4196C37.5434 31.6506 37.8061 31.8229 38.0997 31.9189L37.2291 32.9722C37.0876 33.1452 36.9053 33.2802 36.6987 33.3653C36.492 33.4504 36.2675 33.4829 36.0452 33.4597L31.9624 32.9983C32.1365 32.5457 31.6665 32.0233 30.3781 32.2497L31.9798 27.7577L30.97 25.7207L29.1158 27.3051L28.9765 32.0146L28.1843 31.6229C27.1484 31.1789 26.8437 33.0506 27.8274 33.0593H28.2192C28.1983 33.1469 28.2047 33.2388 28.2373 33.3228C28.27 33.4068 28.3274 33.4788 28.402 33.5294C28.3552 33.5582 28.3165 33.5985 28.2897 33.6465C28.2629 33.6945 28.2488 33.7486 28.2488 33.8036C28.2488 33.8586 28.2629 33.9126 28.2897 33.9606C28.3165 34.0086 28.3552 34.049 28.402 34.0778C28.3484 34.1067 28.3024 34.148 28.268 34.1983C28.2335 34.2485 28.2116 34.3063 28.2039 34.3667C28.1962 34.4271 28.2031 34.4885 28.2239 34.5458C28.2448 34.603 28.2789 34.6545 28.3236 34.6959C28.2538 34.8086 28.2108 34.9358 28.1976 35.0678C28.1845 35.1997 28.2017 35.3329 28.2479 35.4572C28.2941 35.5815 28.368 35.6935 28.4641 35.7849C28.5602 35.8762 28.6759 35.9444 28.8024 35.9843C29.3857 36.141 29.7513 35.5055 29.8732 35.1137L36.228 37.0376C36.621 37.1786 37.0464 37.2027 37.4527 37.1069C37.8591 37.0111 38.229 36.7996 38.5175 36.4979L40.1715 35.0441C40.0438 35.4389 40.0614 35.8664 40.221 36.2495C40.3806 36.6325 40.6718 36.946 41.0421 37.1334C40.9898 37.5433 40.9666 37.9563 40.9724 38.3695H24.4323V27.9231C24.3964 26.9452 24.1871 25.9813 23.8143 25.0765L31.9102 25.1113ZM38.7439 29.0722C38.5719 29.4051 38.4902 29.7772 38.507 30.1514C38.5238 30.5257 38.6385 30.889 38.8396 31.205L38.5698 31.4749C37.3771 31.3269 36.907 29.551 36.907 29.551C36.8938 29.7104 36.8938 29.8705 36.907 30.0298C36.5553 29.9049 36.2559 29.6652 36.0569 29.3494C35.858 29.0335 35.771 28.66 35.8102 28.2888C36.0811 28.4386 36.3755 28.5416 36.6807 28.5935L36.7591 28.0711C36.411 28.0267 36.0834 27.8821 35.8161 27.6549C35.5487 27.4277 35.3531 27.1277 35.253 26.7915H35.1399H35.5838C36.0465 26.7888 36.5066 26.7214 36.9506 26.5912C37.1411 26.8349 37.3789 27.0376 37.6496 27.1872C37.9204 27.3368 38.2185 27.4302 38.5262 27.4618C38.434 27.9883 38.5102 28.5305 38.7439 29.0113V29.0722ZM40.4849 33.7122C40.3618 33.8779 40.2676 34.0634 40.2064 34.2606L39.5448 34.87C39.5716 34.3784 39.485 33.8872 39.2918 33.4344C39.0986 32.9816 38.8039 32.5792 38.4305 32.2584L39.1356 31.562L39.2749 31.7012C39.2218 31.9111 39.2111 32.1294 39.2435 32.3435C39.2758 32.5575 39.3505 32.7629 39.4631 32.9477C39.5758 33.1325 39.7242 33.293 39.8997 33.4198C40.0751 33.5466 40.2741 33.6371 40.4849 33.6861V33.7122ZM37.2727 33.3814L37.8211 32.8416C38.1989 33.1563 38.4935 33.5592 38.6787 34.0146C38.8639 34.4701 38.9341 34.9642 38.8832 35.4532L38.2825 36.0017C38.166 36.1116 38.0375 36.2079 37.8994 36.2889C38.0315 35.79 38.0428 35.2668 37.9323 34.7627C37.8217 34.2585 37.5926 33.788 37.264 33.3901L37.2727 33.3814ZM36.0887 33.8428C36.2932 33.8681 36.5006 33.838 36.6894 33.7557C36.9565 34.1656 37.1185 34.635 37.161 35.1224C37.2035 35.6098 37.1253 36.1001 36.9332 36.5501C36.6559 36.5498 36.3802 36.5087 36.1149 36.4282L35.9059 36.3673C36.2689 35.5715 36.3277 34.6703 36.0713 33.834L36.0887 33.8428ZM34.7307 33.7557L35.5055 33.8515C35.647 34.6623 35.5185 35.4972 35.1399 36.228L34.2693 35.9668C34.6499 35.2959 34.8112 34.5228 34.7307 33.7557ZM33.1289 33.5555L34.0604 33.6686C34.1312 34.4043 33.9796 35.1442 33.6251 35.7927L32.6763 35.5142C33.0431 34.9308 33.2026 34.2407 33.1289 33.5555ZM29.3421 33.303C29.2725 33.337 29.1948 33.3514 29.1176 33.3446C29.0404 33.3378 28.9665 33.3101 28.9038 33.2645C28.8411 33.2188 28.7921 33.157 28.762 33.0855C28.7318 33.0141 28.7217 32.9358 28.7328 32.8591C28.962 32.7361 29.2198 32.6762 29.4798 32.6854C29.7397 32.6946 29.9926 32.7725 30.2127 32.9113C30.439 33.0593 30.6305 33.4684 30.9439 33.7209C30.8851 34.1264 30.789 34.5257 30.6566 34.9135C30.4912 34.9049 30.3316 34.8493 30.1967 34.7531C30.0618 34.657 29.9571 34.5243 29.8949 34.3708C29.8328 34.2172 29.8157 34.0491 29.8458 33.8862C29.8759 33.7232 29.9518 33.5723 30.0647 33.451C29.9805 33.3434 29.8611 33.2687 29.7275 33.24C29.5938 33.2114 29.4544 33.2306 29.3334 33.2943L29.3421 33.303ZM28.7241 35.0354C28.9142 35.1066 29.1135 35.1506 29.316 35.166C29.312 35.2132 29.2981 35.259 29.2752 35.3006C29.2524 35.3421 29.2211 35.3784 29.1833 35.4071C29.1456 35.4358 29.1023 35.4563 29.0562 35.4672C29.0101 35.4782 28.9622 35.4793 28.9156 35.4706C28.8724 35.4575 28.8325 35.4352 28.7987 35.4052C28.7649 35.3753 28.738 35.3383 28.7198 35.297C28.7016 35.2557 28.6926 35.2109 28.6933 35.1657C28.6941 35.1206 28.7045 35.0761 28.7241 35.0354ZM27.8535 32.5283C27.8035 32.5032 27.7635 32.4616 27.7405 32.4106C27.7174 32.3596 27.7127 32.3022 27.727 32.248C27.7413 32.1939 27.7738 32.1463 27.819 32.1133C27.8643 32.0803 27.9195 32.0639 27.9754 32.0669C28.2366 32.0669 28.5935 32.3716 28.933 32.5195C28.5756 32.5791 28.2109 32.5791 27.8535 32.5195V32.5283ZM28.7241 34.339C28.9156 34.5218 29.4814 34.4521 29.4814 34.4521V34.5653C29.2377 34.8961 28.55 34.7481 28.7067 34.339H28.7241ZM29.4727 33.9646C29.0723 34.1213 28.6544 33.9037 28.785 33.6425C28.9765 33.8166 29.4988 33.7296 29.4988 33.7296L29.4727 33.9646ZM30.0647 29.2638L29.2899 32.0843L29.5511 27.5314L30.7524 26.5042L31.3618 27.8448L29.8732 32.2497L30.2823 29.2725C30.2823 29.0635 30.1517 29.0374 30.1169 29.2725L30.0647 29.2638ZM30.1778 32.6849C30.5337 32.6465 30.8927 32.6465 31.2486 32.6849C31.4314 32.7633 31.3095 33.0593 31.0745 33.0245C30.7652 32.941 30.4649 32.8273 30.1778 32.6849ZM31.5272 33.3727L32.4673 33.4858C32.5341 34.1363 32.394 34.7913 32.0669 35.3575L31.1964 35.0963C31.4094 34.5385 31.5356 33.9513 31.5707 33.3553L31.5272 33.3727ZM46.6831 45.8735C46.7249 46.8371 46.4958 47.7932 46.0219 48.6333C45.548 49.4734 44.8482 50.1639 44.0019 50.6266L44.6025 49.4078H44.0193L43.2445 50.9661C42.3782 51.2864 41.4607 51.4457 40.5372 51.4362C37.4816 51.4362 36.672 51.558 35.5403 52.6897C34.4086 51.5668 33.599 51.4362 30.5435 51.4362C29.6287 51.4419 28.7205 51.2827 27.8622 50.9661L28.637 49.3991H28.0538L27.3747 50.7746C27.2093 50.6962 27.0613 50.6179 26.9046 50.5308L27.4618 49.4078H26.8959L26.4868 50.2784C25.8156 49.7736 25.2761 49.1144 24.9139 48.3566C24.5517 47.5989 24.3776 46.765 24.4062 45.9257V39.0137H46.6831V45.8735ZM47.3012 25.12C46.9236 26.0234 46.7142 26.9881 46.6831 27.9667V38.413H45.4644C44.9887 37.7085 44.6437 36.9241 44.4458 36.0974C44.3422 36.4876 44.3212 36.8951 44.3841 37.2938C44.4471 37.6926 44.5926 38.0738 44.8115 38.413H43.2445C42.9107 37.6526 42.6822 36.8501 42.5655 36.0278C42.0954 36.5588 42.3914 38.0039 42.6874 38.4043H41.5992C41.572 37.8833 41.6219 37.3612 41.7472 36.8548C41.1988 36.7503 40.6242 36.4718 40.6242 35.8624C40.7201 35.9655 40.841 36.0421 40.9752 36.0848C41.1095 36.1275 41.2524 36.1349 41.3903 36.1061L41.8342 35.7579C40.3718 35.8014 40.3021 34.1997 41.4599 33.4423C40.2934 33.4423 39.4316 32.7894 39.8494 31.5533C39.6542 31.4281 39.486 31.2652 39.3546 31.0742C39.2232 30.8831 39.1313 30.6678 39.0843 30.4407C39.0372 30.2137 39.036 29.9795 39.0807 29.752C39.1254 29.5245 39.2151 29.3082 39.3445 29.1158C39.1238 28.825 38.9835 28.4813 38.9377 28.1192C38.8918 27.757 38.9421 27.3892 39.0834 27.0526C38.4842 27.0588 37.9064 26.8308 37.4729 26.4171H37.3771C38.0693 26.1382 38.6716 25.6744 39.1182 25.0765L47.3012 25.12ZM42.8702 20.0884C41.6601 20.2973 40.6242 21.7772 39.7798 23.1091L39.684 23.2658H38.8135V23.4225C38.7177 24.4497 37.7428 25.8426 35.5925 25.8426C34.7803 25.8681 33.984 25.6129 33.3379 25.12C32.934 24.8011 32.6316 24.3716 32.4673 23.8839C32.4185 23.7341 32.3864 23.5794 32.3716 23.4225V23.2658H31.5011L31.3182 23.1091C30.4477 21.7772 29.4292 20.306 28.2279 20.0884L31.5098 18.1819L35.549 20.3756L39.5796 18.1819L42.8702 20.0884ZM39.0834 17.233L35.8624 18.9306V12.0795L40.2151 10.5909L39.0834 17.233ZM35.5316 11.3395L30.7524 9.45048C31.1615 8.49289 33.0332 7.70942 35.5316 7.70942C38.03 7.70942 39.8843 8.52771 40.3021 9.45048L35.5316 11.3395Z" fill="#FF7E82"/>
<path fill-rule="evenodd" clip-rule="evenodd" d="M46.1696 31.8664V31.3441C44.5591 31.3441 44.1935 29.4116 44.1935 29.4116C44.1078 29.7078 44.0945 30.0203 44.1549 30.3228C44.2152 30.6252 44.3474 30.9087 44.5403 31.1494C44.7332 31.3901 44.9811 31.5808 45.2631 31.7056C45.5452 31.8304 45.8531 31.8856 46.1609 31.8664" fill="#FF7E82"/>
<path fill-rule="evenodd" clip-rule="evenodd" d="M44.1412 35.0788L43.9845 34.5826C42.6178 34.9308 41.904 32.7632 41.904 32.7632C41.8125 33.077 41.8057 33.4095 41.8841 33.7268C41.9626 34.0441 42.1235 34.3351 42.3507 34.5702C42.5778 34.8052 42.8631 34.9761 43.1775 35.0654C43.4919 35.1548 43.8244 35.1594 44.1412 35.0788Z" fill="#FF7E82"/>
<path fill-rule="evenodd" clip-rule="evenodd" d="M45.09 33.0592C43.4534 33.3203 42.7831 31.4138 42.7831 31.4138C42.7332 31.6628 42.735 31.9193 42.7883 32.1675C42.8417 32.4158 42.9454 32.6504 43.0931 32.8569C43.2409 33.0633 43.4294 33.2373 43.6471 33.3679C43.8648 33.4986 44.107 33.5831 44.3587 33.6163C44.299 33.8862 44.3185 34.1677 44.4148 34.4268C44.5111 34.686 44.6802 34.9119 44.9017 35.0773C45.1232 35.2427 45.3877 35.3407 45.6636 35.3595C45.9394 35.3783 46.2148 35.3171 46.4567 35.1832L46.3 34.7132C46.0837 34.7936 45.847 34.8013 45.6259 34.7352C45.4048 34.6691 45.2112 34.5328 45.0745 34.3469C44.9377 34.1609 44.8653 33.9355 44.8681 33.7048C44.8709 33.474 44.9488 33.2504 45.09 33.0679" fill="#FF7E82"/>
<path fill-rule="evenodd" clip-rule="evenodd" d="M44.1153 27.627V27.1047C41.9563 26.6608 42.1304 25.1721 42.1304 25.1721C42.0468 25.4683 42.0351 25.7801 42.0963 26.0817C42.1574 26.3833 42.2898 26.6659 42.4822 26.906C42.6747 27.1462 42.9217 27.3369 43.2027 27.4623C43.4837 27.5877 43.7906 27.6442 44.0978 27.627" fill="#FF7E82"/>
<path fill-rule="evenodd" clip-rule="evenodd" d="M30.4213 49.3989L29.6465 50.9659H30.2297L30.9958 49.3989H30.4213Z" fill="#FF7E82"/>
<path fill-rule="evenodd" clip-rule="evenodd" d="M31.5879 49.3989L30.8132 50.9659H31.3964L32.1625 49.3989H31.5879Z" fill="#FF7E82"/>
<path fill-rule="evenodd" clip-rule="evenodd" d="M36.263 49.3989L35.4969 50.9659H36.0714L36.8462 49.3989H36.263Z" fill="#FF7E82"/>
<path fill-rule="evenodd" clip-rule="evenodd" d="M37.4379 49.3989L36.6631 50.9659H37.2463L38.0124 49.3989H37.4379Z" fill="#FF7E82"/>
<path fill-rule="evenodd" clip-rule="evenodd" d="M35.096 49.3989L34.3212 50.9659H34.9045L35.6793 49.3989H35.096Z" fill="#FF7E82"/>
<path fill-rule="evenodd" clip-rule="evenodd" d="M41.9299 50.9659H42.5131L43.2879 49.3989H42.7046L41.9299 50.9659Z" fill="#FF7E82"/>
<path fill-rule="evenodd" clip-rule="evenodd" d="M32.7549 49.3989L31.9888 50.9659H32.5721L33.3382 49.3989H32.7549Z" fill="#FF7E82"/>
<path fill-rule="evenodd" clip-rule="evenodd" d="M33.9211 49.3989L33.155 50.9659H33.7383L34.5044 49.3989H33.9211Z" fill="#FF7E82"/>
<path fill-rule="evenodd" clip-rule="evenodd" d="M31.2487 40.9635C31.2013 40.9564 31.153 40.9639 31.11 40.9851C31.0671 41.0062 31.0316 41.04 31.0084 41.0818C30.9851 41.1236 30.9752 41.1716 30.98 41.2192C30.9847 41.2668 31.0039 41.3119 31.0349 41.3483C31.066 41.3848 31.1074 41.4109 31.1537 41.4231C31.1999 41.4354 31.2489 41.4332 31.2939 41.4169C31.3389 41.4006 31.3778 41.371 31.4055 41.332C31.4332 41.2929 31.4484 41.2464 31.4489 41.1985C31.4515 41.1413 31.4322 41.0852 31.3951 41.0415C31.3579 40.9979 31.3056 40.97 31.2487 40.9635Z" fill="#FF7E82"/>
<path fill-rule="evenodd" clip-rule="evenodd" d="M35.549 5.55031C37.474 5.49538 39.3639 6.07335 40.9288 7.19561C41.1743 5.92897 41.6462 4.71695 42.3217 3.61773L40.3891 3.83536L39.3793 1.69386L37.438 2.70367L35.549 0.832031L33.6686 2.70367L31.7186 1.69386L30.7088 3.84407L28.7762 3.62644C29.4535 4.7248 29.9255 5.93714 30.1691 7.20432C31.7368 6.08082 33.6298 5.50281 35.5577 5.55901L35.549 5.55031ZM31.0483 4.68848L31.9711 2.73849L33.7122 3.60902L35.5925 1.74609L37.4728 3.60902L39.2139 2.73849L40.0844 4.68848L41.2161 4.51438C40.9187 5.05031 40.6794 5.61646 40.5023 6.20321C38.9962 5.36229 37.3 4.92082 35.5751 4.92082C33.8502 4.92082 32.1539 5.36229 30.6479 6.20321C30.4696 5.61688 30.2303 5.05085 29.9341 4.51438L31.0483 4.68848Z" fill="#FF7E82"/>
<path fill-rule="evenodd" clip-rule="evenodd" d="M37.5252 1.70272C37.6601 1.71485 37.7944 1.67316 37.8987 1.58675C38.0031 1.50033 38.0691 1.37618 38.0823 1.24134C38.0122 0.878817 37.8797 0.531235 37.6906 0.214111C37.6906 0.214111 37.0725 0.875714 37.0551 1.15428C37.0453 1.2878 37.0881 1.41984 37.1743 1.52227C37.2605 1.62471 37.3832 1.68946 37.5165 1.70272" fill="#FF7E82"/>
<path fill-rule="evenodd" clip-rule="evenodd" d="M40.6852 2.85161C40.7445 2.88318 40.8095 2.90259 40.8764 2.90872C40.9433 2.91485 41.0108 2.90757 41.0748 2.8873C41.1389 2.86703 41.1982 2.83419 41.2494 2.79069C41.3006 2.74719 41.3426 2.69391 41.373 2.63398C41.4521 2.27379 41.4668 1.90244 41.4165 1.53711C41.4165 1.53711 40.5982 1.90273 40.4676 2.15519C40.4062 2.27542 40.3946 2.41498 40.4354 2.54368C40.4761 2.67238 40.5659 2.77988 40.6852 2.84291" fill="#FF7E82"/>
<path fill-rule="evenodd" clip-rule="evenodd" d="M33.5732 1.70272C33.708 1.6916 33.8329 1.62778 33.9209 1.5251C34.0089 1.42242 34.0529 1.28917 34.0433 1.15428C34.0433 0.875714 33.4078 0.214111 33.4078 0.214111C33.2102 0.529787 33.0688 0.877346 32.9899 1.24134C33.0032 1.37455 33.0679 1.49731 33.1704 1.58349C33.2728 1.66967 33.4049 1.71245 33.5384 1.70272" fill="#FF7E82"/>
<path fill-rule="evenodd" clip-rule="evenodd" d="M30.3779 2.8517C30.4958 2.78717 30.5837 2.67903 30.6227 2.55047C30.6618 2.42191 30.6489 2.28316 30.5869 2.16398C30.4563 1.91152 29.638 1.5459 29.638 1.5459C29.5902 1.91172 29.6078 2.28314 29.6902 2.64277C29.7206 2.7027 29.7626 2.75598 29.8138 2.79948C29.8649 2.84297 29.9243 2.87582 29.9883 2.89609C30.0524 2.91635 30.1198 2.92364 30.1867 2.91751C30.2536 2.91138 30.3186 2.89197 30.3779 2.8604" fill="#FF7E82"/>
<path fill-rule="evenodd" clip-rule="evenodd" d="M68.385 20.2538C69.0486 19.9666 69.5713 19.4282 69.8388 18.7565C68.0978 18.5127 63.5623 16.5975 59.8103 18.1558C61.2119 16.8239 62.4741 16.6498 62.596 14.7346C62.7478 14.875 62.9297 14.979 63.1277 15.0384C63.3258 15.0979 63.5348 15.1114 63.7389 15.0778C63.9429 15.0442 64.1366 14.9644 64.3051 14.8446C64.4737 14.7248 64.6126 14.5681 64.7114 14.3864C64.3284 13.246 63.3534 14.1688 63.2141 13.8554C63.0748 13.542 64.4415 13.9859 64.7462 12.506C63.6406 12.123 63.3098 13.0284 63.1096 12.8194C62.9094 12.6105 63.8148 12.2362 63.1619 11.0784C62.0128 11.7487 62.6134 12.5148 62.3697 12.5931C62.1259 12.6714 62.3174 11.7922 61.0465 11.7922C60.9246 13.1589 62.2391 13.2025 62.0215 13.4201C61.8038 13.6377 61.4121 12.6366 60.4545 13.1677C60.4384 13.3979 60.4788 13.6285 60.572 13.8396C60.6652 14.0507 60.8085 14.2359 60.9894 14.3791C61.1703 14.5223 61.3835 14.6192 61.6104 14.6615C61.8372 14.7037 62.071 14.69 62.2913 14.6214C62.1433 16.7194 60.2195 16.3625 58.8092 18.6955C61.8474 20.2538 63.2141 22.9698 65.0857 24.8415C65.748 24.1255 66.3102 23.3231 66.7571 22.4562C66.9853 22.6857 67.2566 22.8679 67.5554 22.9922C67.8542 23.1164 68.1746 23.1804 68.4982 23.1804C68.8218 23.1804 69.1422 23.1164 69.441 22.9922C69.7398 22.8679 70.0111 22.6857 70.2393 22.4562C69.5428 21.7424 69.5167 21.2026 68.4547 20.2277L68.385 20.2538ZM65.5123 20.6107C65.738 21.1476 65.8228 21.7333 65.7588 22.3121C65.6949 22.891 65.4841 23.444 65.1467 23.9187C64.246 21.9645 62.9017 20.2475 61.2206 18.9044C60.9507 18.7303 61.3686 18.4169 62.1433 18.3125C64.4764 17.8685 67.2098 18.8609 68.5156 19.183C68.0168 19.5878 67.4128 19.8415 66.7746 19.9143C67.5875 20.5428 68.3032 21.2879 68.8986 22.1254C67.9846 22.3517 67.4623 21.7685 65.4862 20.5846" fill="#FF7E82"/>
<path fill-rule="evenodd" clip-rule="evenodd" d="M45.9516 55.6321V53.0728C43.5016 54.1551 40.8839 54.8088 38.2126 55.0053L38.0646 55.9194C38.3432 55.9194 38.6914 55.989 39.1528 56.0239C37.9572 56.1751 36.7538 56.2564 35.5488 56.2676C34.3437 56.2564 33.1404 56.175 31.9448 56.0239C32.4062 56.0239 32.7544 55.9629 33.033 55.9194L32.885 55.0053C30.2165 54.8089 27.6017 54.1552 25.1547 53.0728V55.6321L22.4647 56.7377C24.6808 57.8538 27.0175 58.7125 29.429 59.2971L29.072 60.3678C33.3066 61.5668 37.7909 61.5668 42.0255 60.3678L41.6947 59.2971C44.106 58.7117 46.4425 57.8531 48.659 56.7377L45.9516 55.6321ZM23.8924 56.7986L25.7031 56.0674V53.9781C27.2941 54.5591 28.9305 55.0075 30.5955 55.3187L29.5682 58.6616C27.6203 58.2206 25.7217 57.5848 23.9011 56.7638L23.8924 56.7986ZM35.5575 60.6203C33.6205 60.6076 31.6918 60.365 29.812 59.8977L30.9002 56.4156C32.4393 56.6956 34.0019 56.8268 35.5662 56.8073C37.1276 56.8262 38.6872 56.6951 40.2235 56.4156L41.3117 59.8977C39.4288 60.3647 37.4974 60.6072 35.5575 60.6203ZM41.538 58.6616L40.5021 55.3187C42.1649 54.9985 43.7983 54.5414 45.3858 53.952V56.0413L47.1965 56.7725C45.3765 57.5952 43.4777 58.2311 41.5293 58.6703" fill="#FF7E82"/>
<path fill-rule="evenodd" clip-rule="evenodd" d="M4.36657 22.4735C4.80419 23.3348 5.35456 24.134 6.00317 24.8501C7.87481 22.9784 9.25025 20.2624 12.2797 18.7041C10.8433 16.345 8.91945 16.7367 8.79757 14.63C9.0174 14.6968 9.25015 14.7092 9.47583 14.6662C9.70151 14.6231 9.91335 14.5259 10.0932 14.3829C10.273 14.2399 10.4154 14.0554 10.5082 13.8452C10.6009 13.635 10.6412 13.4055 10.6257 13.1762C9.6594 12.6452 9.31989 13.6986 9.05873 13.4287C8.79757 13.1588 10.1643 13.1675 10.0337 11.8008C8.76275 11.8008 8.9978 12.6713 8.69311 12.5669C8.38843 12.4624 9.05003 11.6963 7.90093 11.0522C7.25674 12.2535 8.13597 12.6278 7.95316 12.7932C7.77035 12.9586 7.42214 12.0968 6.31656 12.4798C6.61254 13.9597 8.05762 13.3504 7.8487 13.8291C7.63977 14.3079 6.73442 13.2198 6.35138 14.3602C6.4489 14.5432 6.58729 14.7012 6.7558 14.8221C6.92431 14.943 7.11841 15.0233 7.32303 15.057C7.52764 15.0907 7.73727 15.0768 7.93563 15.0163C8.13399 14.9558 8.31574 14.8505 8.46677 14.7084C8.58865 16.6323 9.85092 16.789 11.2525 18.1296C7.50048 16.5713 2.94761 18.4865 1.22396 18.7302C1.49921 19.3937 2.02458 19.9222 2.68645 20.2014C1.65052 21.2287 1.65052 21.7684 0.927979 22.4822C0.927979 22.4822 2.34694 24.0405 4.4101 22.4822L4.36657 22.4735ZM2.28601 22.1862C2.88269 21.347 3.60158 20.6017 4.41881 19.9751C3.78032 19.8975 3.17677 19.6409 2.67774 19.2351C3.98354 18.8869 6.72571 17.9032 9.05873 18.3646C9.8248 18.4691 10.2601 18.7825 9.9815 18.9566C8.28099 20.2969 6.91842 22.0173 6.00317 23.9795C5.67094 23.5025 5.46342 22.9499 5.39956 22.372C5.3357 21.7942 5.41751 21.2096 5.63755 20.6715C3.67015 21.8641 3.14783 22.4126 2.22507 22.2124" fill="#FF7E82"/>
<path fill-rule="evenodd" clip-rule="evenodd" d="M33.9037 21.0459V22.1776C34.0546 22.0352 34.235 21.9278 34.4321 21.8631C34.6293 21.7984 34.8382 21.778 35.0441 21.8033V23.4312C35.0352 23.8313 34.9276 24.2231 34.7308 24.5716H36.3586C36.1604 24.2205 36.0527 23.8256 36.0453 23.4225V21.8033C36.2512 21.7774 36.4603 21.7975 36.6575 21.8622C36.8548 21.9269 37.0351 22.0347 37.1856 22.1776V21.0459H33.9037Z" fill="#FF7E82"/>
</svg>
